<svg width="64" height="64" viewBox="0 0 64 64" fill="none" xmlns="http://www.w3.org/2000/svg">
<path d="M1.92006 41.01C1.12506 32.66 5.88506 26.035 9.92006 23.365C14.0451 20.635 15.9701 20.245 16.9001 19.72C21.1851 17.31 24.2001 11.935 29.9601 7.96997C36.5151 3.45997 45.4801 2.78997 50.9801 5.80497C55.9951 8.55497 61.1351 14.545 59.7601 26.47C58.3851 38.395 28.4251 58.02 23.2851 58.3C18.1451 58.58 3.12006 53.63 1.92006 41.01Z" fill="#B8885A"/>
<path d="M35.32 38.3449C32.965 39.7249 24.12 48.4899 13.97 48.2499C3.82001 48.0099 2.26001 43.1049 2.26001 43.1049C2.26001 43.1049 3.71501 51.6549 10.715 56.7199C18.635 62.4499 27.035 60.1949 29.485 59.6449C33.12 58.8299 36.33 57.1599 39.545 55.4149C42.76 53.6699 54.19 48.1649 58.68 39.4999C63.635 29.9399 62.455 22.2799 59.98 16.7099C57.36 10.8149 54.805 8.6499 54.805 8.6499C54.805 8.6499 57.185 20.9949 52.145 27.8649C44.995 37.6099 37.675 36.9649 35.32 38.3449Z" fill="#875B52"/>
<path d="M31.615 48.585C31.645 49.215 33.89 49.165 35.52 48.9C37.245 48.62 38.67 48.595 38.91 47.93C39.15 47.265 36.52 44.95 34.97 45.03C34 45.085 31.57 47.665 31.615 48.585ZM43.295 49.8C43.63 50.285 45.02 49.545 45.53 48.88C46.04 48.215 46.615 46.93 46.155 46.645C45.695 46.36 44.38 46.365 43.73 47.165C43.085 47.97 42.96 49.315 43.295 49.8ZM58.625 19.14C58.08 18.18 57.105 20.45 57.06 21.235C57.015 22.02 57.605 22.48 58.26 22.62C58.905 22.755 60.375 22.225 58.625 19.14ZM14.54 53.54C14.1 54.285 14.825 54.825 15.56 55.325C16.14 55.72 17.56 55.93 17.84 55.49C18.125 55.05 17.565 54.4549 16.505 53.5649C15.78 52.9599 14.98 52.795 14.54 53.54Z" fill="#513531"/>
<path d="M8.70002 42.1201C8.07502 42.5551 8.58002 44.4851 8.66502 44.8551C8.75002 45.2251 11.24 45.3551 11.61 44.7851C11.98 44.2151 11.2 43.3901 10.65 42.8151C10.1 42.2451 9.32502 41.6851 8.70002 42.1201ZM13.15 37.6251C13.92 38.6701 15.315 37.4151 15.54 36.4801C15.78 35.4751 14.935 34.8201 13.98 35.4151C13.215 35.8851 12.7 37.0201 13.15 37.6251ZM23.11 17.7301C22.11 17.3101 21.73 18.1901 21.355 19.0801C20.98 19.9701 19.77 21.5901 20.53 21.8151C21.29 22.0401 23.08 21.9351 23.525 21.2101C23.97 20.4801 24.11 18.1551 23.11 17.7301Z" fill="#875B52"/>
<path d="M6.03494 39.7401C7.13494 40.2351 8.84494 37.8951 9.62994 36.7701C10.7849 35.1151 12.5249 33.025 16.5999 30.5C22.1899 27.04 28.0249 27.91 31.0249 25.305C34.0249 22.7 35.7649 17.535 38.0549 14.975C42.2399 10.295 46.5849 13.49 47.1899 11.225C47.7949 8.96005 44.6949 7.03505 41.0349 7.04005C37.3799 7.05005 33.1999 8.39505 29.3999 14.54C25.5999 20.685 24.6549 22.565 21.1299 23.675C17.6049 24.79 13.2249 26.26 9.00494 30.955C6.65994 33.565 4.19994 38.9151 6.03494 39.7401Z" fill="#D9AC82"/>
<path d="M41.3851 16.9099C41.6001 18.5099 43.8001 19.3799 45.0951 19.3949C46.3101 19.4099 47.185 18.6199 47.17 17.8149C47.155 16.8499 45.5851 16.4049 44.9701 16.1649C43.7651 15.6999 43.4851 14.6899 42.3601 15.0499C41.3401 15.3799 41.3551 16.6649 41.3851 16.9099Z" fill="#875B52"/>
</svg>
