<svg width="64" height="64" viewBox="0 0 64 64" fill="none" xmlns="http://www.w3.org/2000/svg">
<path d="M31.7149 2.25492C47.5549 2.21992 57.5499 27.9849 53.6049 44.3149C50.1149 58.7749 40.0899 61.7699 32.0649 61.7699C24.0399 61.7699 14.2949 57.8799 10.5249 44.8749C6.16492 29.8149 16.9349 2.28992 31.7149 2.25492Z" fill="#F2A05B"/>
<path d="M19.6299 14.515C17.7299 17.5501 15.8149 21.37 15.4049 24.555C14.6549 30.42 18.9699 31.08 20.4749 28.17C21.9799 25.26 23.5199 22.315 25.9649 18.41C29.3449 13.015 34.8799 9.40005 32.1599 7.05505C29.4399 4.71005 23.6199 8.13505 19.6299 14.515Z" fill="#FECC88"/>
<path d="M45.6999 22.82C46.2578 22.82 46.7099 22.3589 46.7099 21.79C46.7099 21.2212 46.2578 20.76 45.6999 20.76C45.1421 20.76 44.6899 21.2212 44.6899 21.79C44.6899 22.3589 45.1421 22.82 45.6999 22.82Z" fill="#D47858"/>
<path d="M46.8357 47.4433C47.0658 46.884 46.8009 46.245 46.2442 46.016C45.6875 45.787 45.0496 46.0547 44.8196 46.614C44.5896 47.1733 44.8544 47.8123 45.4111 48.0413C45.9679 48.2703 46.6057 48.0026 46.8357 47.4433Z" fill="#D47858"/>
<path d="M17.397 51.8258C17.6112 51.3049 17.3626 50.7088 16.8416 50.4945C16.3207 50.2802 15.7246 50.5289 15.5103 51.0498C15.296 51.5708 15.5447 52.1669 16.0656 52.3812C16.5866 52.5955 17.1827 52.3468 17.397 51.8258Z" fill="#D47858"/>
<path d="M49.4467 32.4811C50.1994 32.091 50.5315 31.2382 50.1884 30.5762C49.8454 29.9142 48.9571 29.6938 48.2044 30.0838C47.4517 30.4738 47.1196 31.3267 47.4627 31.9887C47.8057 32.6506 48.694 32.8711 49.4467 32.4811Z" fill="#D47858"/>
<path d="M34.882 45.9022C35.6347 45.5121 35.9668 44.6593 35.6237 43.9973C35.2807 43.3353 34.3924 43.1149 33.6397 43.5049C32.887 43.895 32.5549 44.7478 32.898 45.4098C33.241 46.0718 34.1293 46.2922 34.882 45.9022Z" fill="#D47858"/>
<path d="M33.4516 53.004C34.0077 52.3067 33.986 51.3645 33.4031 50.8997C32.8202 50.4348 31.8968 50.6233 31.3407 51.3206C30.7846 52.0179 30.8063 52.9601 31.3892 53.425C31.9721 53.8898 32.8955 53.7014 33.4516 53.004Z" fill="#D47858"/>
<path d="M27.488 54.6568C28.1449 53.9181 28.0986 52.8045 27.3846 52.1696C26.6706 51.5347 25.5593 51.6189 24.9023 52.3577C24.2454 53.0964 24.2917 54.21 25.0057 54.8449C25.7197 55.4798 26.831 55.3956 27.488 54.6568Z" fill="#D47858"/>
</svg>
