<svg width="64" height="64" viewBox="0 0 64 64" fill="none" xmlns="http://www.w3.org/2000/svg">
<path d="M10.0149 12.905L4.60991 16.48C4.60991 16.48 3.83491 18 4.88491 23.145C5.93491 28.29 10.6749 38.47 20.2199 48.13C28.4549 56.46 38.0699 60.52 46.5249 60.955C54.9799 61.39 59.0449 55.925 59.0449 55.925L10.0149 12.905Z" fill="#8E2F97"/>
<path d="M14.6399 10.29L10.0149 18.27C10.0149 18.27 12.9249 28.865 17.8299 35.46C23.1499 42.61 29.2349 48.82 38.7699 53.665C46.9049 57.8 54.5149 59.37 54.5149 59.37C54.5149 59.37 59.4799 57.385 61.4599 51.88C63.3449 46.64 60.8499 40.895 57.2749 38.105C53.6999 35.315 46.5449 33.59 40.0249 30.125C33.1099 26.45 27.9849 22.155 23.4549 17.275C20.6199 14.225 19.9649 12.925 19.8699 12.375C19.8249 12.115 19.6599 11.895 19.4099 11.815L14.6399 10.29Z" fill="#A057A1"/>
<path d="M11.3551 19.005L10.9501 21.875C10.9501 21.875 11.6851 22.85 12.5651 22.775C13.4451 22.7 14.8001 20.435 15.1401 18.89C15.6401 16.63 15.3701 15.37 15.3701 15.37C15.3701 15.37 17.1301 16.29 19.7701 15.905C22.4101 15.52 23.7501 14.03 24.0951 13.265C24.4401 12.5 24.3651 11.655 23.9801 11.465C23.5951 11.275 21.7201 12.115 21.7201 12.115L15.7501 11.885L10.0851 13.53L11.3551 19.005ZM1.50005 23.205C1.50005 23.205 0.705052 23.505 0.945051 24.385C1.11505 24.995 2.57505 25.96 4.52005 24.985C6.46505 24.01 7.70505 21.425 8.19005 20.2C8.99005 18.17 9.34005 16.775 9.34005 16.775L6.64005 15.175L4.24005 20.95C4.24005 20.95 3.16005 22.775 1.50005 23.205Z" fill="#BDCF46"/>
<path d="M5.50508 10.1C5.50508 10.1 3.88508 7.43498 3.70508 5.84498C3.55508 4.49498 4.18508 3.65998 4.51008 3.24498C5.01008 2.60498 6.05508 2.18998 6.74008 2.55498C7.59008 3.00498 7.58008 3.86498 8.13508 4.97998C8.69008 6.09498 9.64508 7.77498 9.64508 7.77498C9.64508 7.77498 11.5651 7.16498 14.3501 8.12998C17.1351 9.09498 18.3651 10.35 20.0751 10.835C21.7851 11.32 23.8751 10.68 23.9851 11.47C24.0951 12.26 21.3451 13.89 18.9651 14C16.5851 14.11 15.1001 12.775 14.2801 13.295C13.4601 13.815 14.1001 16.985 13.3651 19.25C12.7801 21.05 11.3351 21.955 10.9601 21.905C10.8951 21.895 9.22008 19.32 8.89008 18.615C8.55508 17.91 7.92508 16.125 6.99508 17.5C6.06508 18.875 6.26008 20.955 4.43008 22.555C3.07508 23.74 1.74008 23.635 1.44008 23.31C1.34508 23.205 2.63008 22.31 2.63008 21.23C2.63008 20.15 2.32008 16.045 2.88008 14.035C3.62008 11.36 5.50508 10.1 5.50508 10.1Z" fill="#6F9823"/>
</svg>
