<svg width="64" height="64" viewBox="0 0 64 64" fill="none" xmlns="http://www.w3.org/2000/svg">
<path d="M59.8851 34.6899C59.8851 34.6899 60.7401 28.1649 59.1851 25.2149C57.6301 22.2649 52.8301 15.7499 42.8751 14.5749C37.5951 13.9549 34.0201 14.6549 30.7601 15.0399C28.6951 15.2849 24.8501 14.0149 17.9451 15.5849C12.8251 16.7499 5.05506 21.2549 2.53006 30.9649C1.20006 36.0799 1.70506 41.6049 3.97006 46.2599C8.32006 55.1899 16.3951 57.3649 16.3951 57.3649L32.6251 58.6849L52.2751 50.3749L59.8851 34.6899Z" fill="#FF2A23"/>
<path d="M41.015 59.5401C51.345 57.5201 60.275 48.2801 61.83 38.4951C63.285 29.3401 57.935 23.2051 57.935 23.2051C57.935 23.2051 58.545 28.0901 57.405 33.2951C56.18 38.8651 52.635 48.1501 41.405 53.4101C27.62 59.8651 12.52 55.6101 12.52 55.6101C12.52 55.6101 22.78 63.1051 41.015 59.5401Z" fill="#DC0D27"/>
<path d="M12.4601 26.3799C9.71506 25.6699 6.29006 27.7449 5.79506 33.8199C5.34006 39.3849 8.35506 46.0899 11.3101 45.2899C13.8201 44.6099 11.4051 39.9599 12.3001 36.1449C13.2051 32.3299 16.6451 27.4649 12.4601 26.3799Z" fill="#FED3B0"/>
<path d="M15.935 23.0249C15.545 23.5299 16.45 25.7499 21.045 25.7199C25.635 25.6899 26.405 24.3049 28.45 24.9249C30.495 25.5449 32.09 28.0049 34.35 29.3499C37.51 31.2299 42.07 30.7499 42.04 29.9149C42.01 29.0749 40.895 29.5049 39.935 28.3299C38.975 27.1499 37.275 24.0349 37.275 24.0349C37.275 24.0349 37.75 22.5749 38.755 22.6299C41.075 22.7549 43.655 22.2949 45.075 21.4049C46.775 20.3449 47.415 18.7099 47.105 18.3349C46.795 17.9649 45.83 18.9649 45.305 18.8699C44.78 18.7749 41.365 18.8399 41.365 18.8399L37.24 18.1699C37.24 18.1699 37.805 15.7549 38.92 14.5149C40.035 13.2749 41.785 11.5699 41.75 11.3549C41.715 11.1399 40.31 11.3299 40.31 11.3299L35.965 13.3149L32.925 17.3149L27.155 18.0599L21.6 14.3349C21.6 14.3349 18.415 11.7649 18.27 11.8249C17.465 12.1549 18.69 13.3799 19.615 14.8599C20.415 16.1449 20.58 16.7899 21.66 17.6849C22.715 18.5549 24.485 19.4199 24.485 19.4199L23.215 21.7149C23.215 21.7149 19.12 23.3299 18.405 23.3299C17.695 23.3349 16.15 22.7499 15.935 23.0249Z" fill="#BDCF44"/>
<path d="M28.7549 21.64C30.4299 21.765 31.6399 23.99 33.1499 25.505C35.3549 27.71 37.0799 28.86 38.9349 29.295C39.8649 29.51 41.9999 29.865 41.9999 29.865C41.9999 29.865 42.3099 29.65 41.2549 29.06C40.1999 28.47 39.5649 27.3401 39.4099 26.8151C39.2549 26.2901 38.7699 24.565 37.7499 23.135C36.7299 21.705 35.5699 21.1001 35.9399 20.4501C36.3099 19.8001 39.5099 20.9001 42.5899 20.4051C46.6549 19.7551 47.2749 18.45 47.0899 18.295C46.9049 18.14 44.3899 18.885 43.1199 18.605C41.8499 18.325 40.7599 17.455 38.8399 17.455C37.5299 17.455 36.2499 17.93 35.9049 17.215C35.6149 16.615 36.7049 14.61 37.5349 13.855C39.5499 12.025 41.7249 11.59 41.7249 11.34C41.7249 10.825 38.1899 10.535 35.7399 12.49C33.2999 14.435 33.7599 16.99 30.5899 16.99C29.5349 16.99 29.1299 16.74 29.1299 16.74C29.1299 16.74 27.7149 15.575 25.8249 14.55C23.9349 13.525 22.5099 13.98 21.4199 13.455C20.3349 12.93 18.4099 11.57 18.2249 11.845C18.0399 12.12 19.6699 13.98 21.7199 15.5C23.7699 17.02 26.0649 17.7951 25.4099 18.4151C24.7599 19.0351 23.6749 19.44 22.6499 20.215C21.6249 20.99 20.7249 22.105 19.4849 22.51C18.2449 22.915 16.2049 22.63 15.9249 22.97C15.6449 23.31 18.0849 24.485 21.8999 23.775C25.7049 23.065 25.7149 21.415 28.7549 21.64Z" fill="#94A61D"/>
<path d="M32.56 2.47001C31.725 2.43001 30.67 3.09001 30.67 3.09001C30.67 3.09001 29.14 4.95501 28.535 9.58501C28.255 11.725 28.56 14.6 28.5 16.185C28.44 17.765 28.095 18.355 28.19 19.165C28.285 19.97 29.13 20.88 31.085 20.86C32.655 20.845 33.465 19.63 33.435 19.195C33.405 18.76 32.06 14.325 32.44 10.415C32.795 6.78001 34.12 4.27001 34.175 3.74501C34.205 3.46001 33.83 2.53001 32.56 2.47001Z" fill="#728035"/>
</svg>
