<svg width="64" height="64" viewBox="0 0 64 64" fill="none" xmlns="http://www.w3.org/2000/svg">
<path d="M10.87 12.3849L4.28498 20.5199C4.28498 20.5199 2.30998 22.9949 2.81998 25.4399C3.39498 28.1699 4.84498 28.3349 4.84498 28.3349C4.84498 28.3349 4.74998 30.4549 5.99998 32.2599C7.24998 34.0649 7.84498 34.9199 12.385 36.2949C16.925 37.6699 25.115 39.2149 25.115 39.2149L27.225 47.4049C27.225 47.4049 27.79 49.4299 30.305 50.4849C32.82 51.5399 34.785 51.2649 34.785 51.2649C34.785 51.2649 35.825 54.1399 39.28 54.9399C42.27 55.6349 44.655 54.1299 44.655 54.1299C44.655 54.1299 47.17 55.6699 50.41 54.9399C54.17 54.0949 55.03 51.7799 55.03 51.7799C55.03 51.7799 58.11 51.4549 60.135 48.5349C62.16 45.6149 60.7 42.2949 60.7 42.2949C60.7 42.2949 62.495 39.6349 61.995 36.6199C61.545 33.8899 60.46 32.9599 60.46 32.9599L53.97 28.4299C53.97 28.4299 56.725 27.2949 57.7 22.4299C58.675 17.5649 56.24 15.1349 56.24 15.1349C56.24 15.1349 57.195 12.3899 55.59 9.94494C54.05 7.59494 51.86 8.72994 50.805 7.67494C49.505 6.37494 42.13 5.56494 42.13 5.56494L33.625 12.6299L10.87 12.3849Z" fill="#2F7C31"/>
<path d="M13.9999 4.22496C13.9999 4.22496 16.5449 1.43496 19.9599 1.67996C23.3749 1.92496 23.9949 3.98496 23.9949 3.98496C23.9949 3.98496 26.0899 3.63996 27.4049 4.22496C30.0949 5.42496 29.8099 6.81996 30.6249 6.72496C31.4399 6.62996 31.4399 3.16996 35.2399 1.96496C39.0399 0.759963 41.1049 2.58996 41.9199 2.53996C42.7349 2.48996 43.7449 1.52496 46.6299 2.44496C49.2249 3.27496 49.7799 4.99496 49.8999 5.51996C50.0399 6.15496 50.0399 6.86496 50.8099 7.67996C51.5799 8.49496 50.7549 11.45 49.6499 12.65C48.5449 13.85 46.3899 13.975 46.3899 13.975C46.3899 13.975 46.8949 18.125 43.4449 20.405C41.0199 22.005 38.4099 21.375 38.4099 21.375C38.4099 21.375 35.6249 23.785 32.4999 22.775C29.3749 21.765 29.0399 20.47 30.7699 19.025C32.4999 17.585 33.2699 14.795 31.2049 14.265C29.1399 13.735 27.0249 14.745 26.3049 17.005C25.5849 19.265 25.5349 21.235 23.1799 22.915C20.8249 24.595 19.0949 24.07 16.7399 24.695C14.3849 25.32 12.7999 27.34 10.8299 27.385C8.85988 27.435 7.31988 25.99 6.30988 26.135C5.29988 26.28 3.23488 26.76 3.23488 26.76C3.23488 26.76 2.31988 25.03 2.89988 22.915C3.47988 20.8 4.28988 20.515 4.28988 20.515C4.28988 20.515 -0.395116 15.985 3.90988 9.07496C7.79988 2.82996 13.9999 4.22496 13.9999 4.22496ZM39.8549 36.615C39.8549 36.615 41.6799 35.845 42.8849 33.78C44.0849 31.715 44.7099 30.175 46.6349 29.165C48.5549 28.155 50.7199 28.25 53.5099 28.395C56.2999 28.54 57.0049 29.39 57.6899 30.075C59.0349 31.42 60.4799 32.96 60.4799 32.96C60.4799 32.96 58.1249 33.15 56.8749 35.075C55.6249 37 54.8549 39.64 54.8549 39.64C54.8549 39.64 53.1749 40.265 51.3949 41.225C49.6149 42.185 45.6749 44.735 43.0799 44.06C40.4849 43.385 39.1399 40.405 39.1399 40.07C39.1349 39.74 39.8549 36.615 39.8549 36.615Z" fill="#709921"/>
<path d="M17.67 40.9149C17.55 41.2749 5.03003 55.3599 5.03003 55.3599C5.03003 55.3599 6.53503 57.6449 7.86003 58.7299C9.18503 59.8149 11.335 61.4349 12.7 61.8049C14.18 62.2049 15.32 62.6449 16.645 60.8999C17.97 59.1549 18.99 56.8699 22.605 53.0149C26.22 49.1599 28.805 46.8149 31.69 45.4299C34.575 44.0449 38.73 43.0849 39.815 42.9649C40.9 42.8449 42.28 42.7249 42.28 42.7249C42.28 42.7249 43.095 41.0799 42.82 39.7749C42.515 38.3199 40.475 37.6699 40.475 37.6699L30.125 39.1749L31.35 38.7649C31.35 38.7649 30.865 38.0499 31.51 37.1249C32.07 36.3199 34.64 33.2099 35.485 32.0649C36.33 30.9199 38.045 28.6999 38.01 28.3399C37.95 27.6799 36.385 26.8349 35.905 26.5349C35.425 26.2349 34.4 25.8149 34.4 25.8149L23.325 37.2999L22.725 36.7599C22.725 36.7599 22.005 36.7249 21.58 35.6149C21.28 34.8349 21.16 32.4849 20.92 30.4399C20.77 29.1599 20.68 27.6699 20.68 27.6699C20.68 27.6699 18.935 26.8899 17.79 27.0099C16.645 27.1299 15.325 28.3949 15.325 28.3949L17.67 40.9149Z" fill="#9FB525"/>
<path d="M13.455 28.755C13.275 29.235 13.575 31.405 13.575 34.29C13.575 37.175 13.41 39.85 12.01 41.57C10.205 43.795 7.135 46.925 4.79 49.03C3.775 49.94 3.105 50.295 3.045 50.535C2.985 50.775 3.48 52.965 3.95 53.905C4.8 55.605 6.36 57.15 6.36 57.15C6.36 57.15 12.615 50.115 15.265 47.405C17.915 44.695 19.355 42.89 19.96 43.495C20.56 44.095 18.565 46.44 17.13 48.07C14.965 50.535 8.895 59.53 8.895 59.53C8.895 59.53 9.23 59.88 9.91 60.345C10.51 60.76 10.98 60.975 10.98 60.975C10.98 60.975 14.18 55.77 18.635 51.075C23.09 46.38 25.615 44.215 28.685 43.19C31.755 42.165 42.825 39.76 42.825 39.76C42.825 39.76 42.345 38.075 42.045 37.355C41.745 36.635 41.08 35.79 41.08 35.79C41.08 35.79 35.545 37.235 34.58 37.535C33.615 37.835 28.14 38.5 27.9 37.895C27.66 37.295 31.57 32.42 32.715 30.915C33.86 29.41 35.93 26.52 35.93 26.52C35.93 26.52 34.705 25.68 33.2 25.32C31.695 24.96 31.155 25.26 31.155 25.26C31.155 25.26 27.485 30.195 26.4 31.64C25.315 33.085 23.21 36.215 21.285 36.755C19.36 37.295 18.88 36.815 18.635 35.37C18.395 33.925 17.79 27.005 17.79 27.005C17.79 27.005 15.865 27.125 15.14 27.485C14.415 27.845 13.635 28.275 13.455 28.755Z" fill="#B7D118"/>
<path d="M51.4801 37.5651C51.4801 37.5651 52.6001 35.5401 53.5651 36.3851C54.5351 37.2301 52.6901 39.8951 52.2951 39.9851C51.9001 40.0751 48.8201 39.0501 49.2701 37.9001C49.7301 36.7501 51.4801 37.5651 51.4801 37.5651ZM22.3901 17.2451C23.5401 17.2051 25.9551 14.8451 24.9351 13.6201C24.1101 12.6301 22.3901 14.5501 22.3901 14.5501C22.3901 14.5501 20.5701 12.6751 19.8501 13.5801C18.8251 14.8901 21.5451 17.2751 22.3901 17.2451ZM15.9801 19.6051C15.9801 19.6051 16.9801 17.5501 18.1251 18.4251C19.2751 19.3001 17.2801 22.2651 16.6751 22.4451C16.0701 22.6251 12.8201 20.7651 13.6801 19.4501C14.3801 18.3951 15.9801 19.6051 15.9801 19.6051ZM7.18008 17.7301C7.54008 17.7901 10.1151 16.3401 9.38508 15.0701C8.65508 13.8001 7.18008 15.4051 7.18008 15.4051C7.18008 15.4051 5.78508 14.1701 5.18508 14.9201C4.22008 16.1301 6.64008 17.6401 7.18008 17.7301ZM7.63508 21.9051C7.63508 21.9051 8.60508 19.9101 9.63008 20.6651C10.6601 21.4201 8.87508 24.4451 8.60008 24.5651C8.33008 24.6851 4.69508 23.6601 5.48508 22.2051C6.03508 21.2101 7.63508 21.9051 7.63508 21.9051ZM39.6051 19.6551C40.4001 19.3101 41.7301 16.6201 40.4851 16.0751C39.4801 15.6351 38.9551 17.2751 38.9551 17.2751C38.9551 17.2751 37.8401 16.2951 37.0751 17.1001C35.9001 18.3351 39.1251 19.8651 39.6051 19.6551ZM45.2551 9.19011C45.2551 9.19011 45.3201 8.02011 46.2201 8.08011C47.2101 8.15011 47.0801 10.5901 46.3251 11.0501C45.5701 11.5101 43.0801 10.1901 43.6451 9.27011C44.0051 8.68511 45.3201 9.08511 45.2551 9.19011Z" fill="#2F7C31"/>
</svg>
