<svg width="58" height="44" viewBox="0 0 58 44" fill="none" xmlns="http://www.w3.org/2000/svg">
<path d="M58.0001 10C58.0001 7.34784 56.9465 4.8043 55.0711 2.92893C53.1958 1.05357 50.6522 0 48.0001 0H10.0001C7.70374 0.00139281 5.47786 0.793045 3.69637 2.24196C1.91489 3.69088 0.686332 5.70877 0.217111 7.95663C-0.252111 10.2045 0.0665908 12.5454 1.11967 14.586C2.17276 16.6266 3.89605 18.2426 6.00005 19.1625V40C6.00005 41.0609 6.42148 42.0783 7.17162 42.8284C7.92177 43.5786 8.93919 44 10.0001 44H48.0001C49.0609 44 50.0783 43.5786 50.8285 42.8284C51.5786 42.0783 52.0001 41.0609 52.0001 40V19.1625C53.7818 18.3828 55.298 17.1012 56.3635 15.4741C57.429 13.847 57.9976 11.9449 58.0001 10ZM10.0001 20C10.5305 20 11.0392 19.7893 11.4143 19.4142C11.7893 19.0391 12.0001 18.5304 12.0001 18C12.0001 17.4696 11.7893 16.9609 11.4143 16.5858C11.0392 16.2107 10.5305 16 10.0001 16C8.40875 16 6.88263 15.3679 5.75741 14.2426C4.63219 13.1174 4.00005 11.5913 4.00005 10C4.00005 8.4087 4.63219 6.88258 5.75741 5.75736C6.88263 4.63214 8.40875 4 10.0001 4H34.0001C35.5914 4 37.1175 4.63214 38.2427 5.75736C39.3679 6.88258 40.0001 8.4087 40.0001 10C40.0001 11.5913 39.3679 13.1174 38.2427 14.2426C37.1175 15.3679 35.5914 16 34.0001 16C33.4696 16 32.9609 16.2107 32.5858 16.5858C32.2108 16.9609 32.0001 17.4696 32.0001 18C32.0001 18.5304 32.2108 19.0391 32.5858 19.4142C32.9609 19.7893 33.4696 20 34.0001 20V40H10.0001V20ZM48.0001 16C47.4696 16 46.9609 16.2107 46.5858 16.5858C46.2108 16.9609 46.0001 17.4696 46.0001 18C46.0001 18.5304 46.2108 19.0391 46.5858 19.4142C46.9609 19.7893 47.4696 20 48.0001 20V40H38.0001V19.1625C39.3824 18.5589 40.6103 17.6505 41.5918 16.5051C42.5733 15.3598 43.283 14.0073 43.6678 12.5488C44.0525 11.0904 44.1023 9.56376 43.8135 8.0833C43.5247 6.60285 42.9048 5.20691 42.0001 4H48.0001C49.5914 4 51.1175 4.63214 52.2427 5.75736C53.3679 6.88258 54.0001 8.4087 54.0001 10C54.0001 11.5913 53.3679 13.1174 52.2427 14.2426C51.1175 15.3679 49.5914 16 48.0001 16Z" fill="#717D11"/>
</svg>
