<svg width="46" height="46" viewBox="0 0 46 46" fill="none" xmlns="http://www.w3.org/2000/svg">
<path d="M31.625 13.2969C31.2357 13.2969 30.8988 13.1546 30.6143 12.8701C30.3298 12.5856 30.1875 12.2487 30.1875 11.8594C30.1875 11.0957 30.3298 10.362 30.6143 9.6582C30.8988 8.95443 31.318 8.33301 31.8721 7.79395L33.6465 5.99707C34.2155 5.42806 34.5 4.74674 34.5 3.95312C34.5 3.5638 34.6423 3.22689 34.9268 2.94238C35.2113 2.65788 35.5482 2.51562 35.9375 2.51562C36.3268 2.51562 36.6637 2.65788 36.9482 2.94238C37.2327 3.22689 37.375 3.5638 37.375 3.95312C37.375 4.7168 37.2327 5.45052 36.9482 6.1543C36.6637 6.85807 36.2445 7.47949 35.6904 8.01855L33.916 9.81543C33.347 10.3844 33.0625 11.0658 33.0625 11.8594C33.0625 12.2487 32.9202 12.5856 32.6357 12.8701C32.3512 13.1546 32.0143 13.2969 31.625 13.2969ZM23 13.2969C22.6107 13.2969 22.2738 13.1546 21.9893 12.8701C21.7048 12.5856 21.5625 12.2487 21.5625 11.8594C21.5625 11.0957 21.7048 10.362 21.9893 9.6582C22.2738 8.95443 22.693 8.33301 23.2471 7.79395L25.0215 5.99707C25.5905 5.42806 25.875 4.74674 25.875 3.95312C25.875 3.5638 26.0173 3.22689 26.3018 2.94238C26.5863 2.65788 26.9232 2.51562 27.3125 2.51562C27.7018 2.51562 28.0387 2.65788 28.3232 2.94238C28.6077 3.22689 28.75 3.5638 28.75 3.95312C28.75 4.7168 28.6077 5.45052 28.3232 6.1543C28.0387 6.85807 27.6195 7.47949 27.0654 8.01855L25.291 9.81543C24.722 10.3844 24.4375 11.0658 24.4375 11.8594C24.4375 12.2487 24.2952 12.5856 24.0107 12.8701C23.7262 13.1546 23.3893 13.2969 23 13.2969ZM41.6875 17.25C42.2865 17.25 42.848 17.3623 43.3721 17.5869C43.8962 17.8115 44.3529 18.1185 44.7422 18.5078C45.1315 18.8971 45.4385 19.3538 45.6631 19.8779C45.8877 20.402 46 20.9635 46 21.5625V30.1875C46 30.7865 45.8877 31.348 45.6631 31.8721C45.4385 32.3962 45.1315 32.8529 44.7422 33.2422C44.3529 33.6315 43.8962 33.9385 43.3721 34.1631C42.848 34.3877 42.2865 34.5 41.6875 34.5H40.4072C40.3773 34.6048 40.3548 34.7021 40.3398 34.792C40.3249 34.8818 40.2949 34.9717 40.25 35.0615V35.9375C40.25 36.9258 40.0628 37.8542 39.6885 38.7227C39.3141 39.5911 38.7975 40.3548 38.1387 41.0137C37.4798 41.6725 36.7161 42.1891 35.8477 42.5635C34.9792 42.9378 34.0508 43.125 33.0625 43.125H24.4375C23.2695 43.125 22.1914 42.863 21.2031 42.3389C20.2148 41.8148 19.3913 41.1185 18.7324 40.25H7.50195C6.51367 40.25 5.58529 40.0628 4.7168 39.6885C3.84831 39.3141 3.08464 38.805 2.42578 38.1611C1.76693 37.5173 1.25033 36.7536 0.875977 35.8701C0.501628 34.9867 0.314453 34.0508 0.314453 33.0625V31.625H6.06445C6.06445 30.4421 6.28906 29.3265 6.73828 28.2783C7.1875 27.2301 7.80892 26.3167 8.60254 25.5381C9.39616 24.7594 10.3096 24.138 11.3428 23.6738C12.376 23.2096 13.4915 22.985 14.6895 23C15.1387 23 15.5729 23.0374 15.9922 23.1123C16.4115 23.1872 16.8307 23.292 17.25 23.4268V14.375H40.25V17.25H41.6875ZM14.6895 25.875C13.8958 25.875 13.1546 26.0247 12.4658 26.3242C11.777 26.6237 11.1631 27.0355 10.624 27.5596C10.085 28.0837 9.67318 28.6901 9.38867 29.3789C9.10417 30.0677 8.95443 30.8164 8.93945 31.625H17.25V26.5039C16.8607 26.3092 16.4564 26.1595 16.0371 26.0547C15.6178 25.9499 15.1686 25.89 14.6895 25.875ZM7.50195 37.375H17.4072C17.3024 36.9408 17.25 36.4616 17.25 35.9375V34.5H3.43652C3.58626 34.9193 3.7959 35.3011 4.06543 35.6455C4.33496 35.9899 4.64193 36.2969 4.98633 36.5664C5.33073 36.8359 5.72005 37.0306 6.1543 37.1504C6.58854 37.2702 7.03776 37.3451 7.50195 37.375ZM17.9014 38.8799V38.9023L17.9238 38.9473V38.9248L17.9014 38.8799ZM37.375 35.9375V17.25H20.125V35.9375C20.125 36.5365 20.2373 37.098 20.4619 37.6221C20.6865 38.1462 20.9935 38.6029 21.3828 38.9922C21.7721 39.3815 22.2288 39.6885 22.7529 39.9131C23.277 40.1377 23.8385 40.25 24.4375 40.25H33.0625C33.6615 40.25 34.223 40.1377 34.7471 39.9131C35.2712 39.6885 35.7279 39.3815 36.1172 38.9922C36.5065 38.6029 36.8135 38.1462 37.0381 37.6221C37.2627 37.098 37.375 36.5365 37.375 35.9375ZM43.125 30.1875V21.5625C43.125 21.1732 42.9827 20.8363 42.6982 20.5518C42.4137 20.2673 42.0768 20.125 41.6875 20.125H40.25V31.625H41.6875C42.0768 31.625 42.4137 31.4827 42.6982 31.1982C42.9827 30.9137 43.125 30.5768 43.125 30.1875Z" fill="#717D11"/>
</svg>
