<svg width="46" height="46" viewBox="0 0 46 46" fill="none" xmlns="http://www.w3.org/2000/svg">
<path d="M5.75 18.6875V16.5312C5.74992 15.588 5.95612 14.6562 6.35415 13.801C6.75217 12.9459 7.33239 12.1881 8.05414 11.5809C8.77589 10.9736 9.62171 10.5316 10.5323 10.2857C11.4429 10.0398 12.3963 9.99597 13.3256 10.1574C13.9305 8.05889 15.2013 6.21399 16.9463 4.90088C18.6914 3.58778 20.8161 2.87769 23 2.87769C25.1839 2.87769 27.3086 3.58778 29.0537 4.90088C30.7987 6.21399 32.0695 8.05889 32.6744 10.1574C33.6037 9.99597 34.5571 10.0398 35.4677 10.2857C36.3783 10.5316 37.2241 10.9736 37.9459 11.5809C38.6676 12.1881 39.2478 12.9459 39.6459 13.801C40.0439 14.6562 40.2501 15.588 40.25 16.5312V18.6875C40.2506 23.0141 38.6254 27.1829 35.6965 30.3674C32.7676 33.5519 28.749 35.5194 24.4375 35.88V40.25H21.5625V35.88C17.251 35.5194 13.2324 33.5519 10.3035 30.3674C7.37463 27.1829 5.74937 23.0141 5.75 18.6875ZM18.6473 17.2471H27.3527C27.225 16.1079 27.4026 14.9553 27.8674 13.9074C28.3322 12.8595 29.0675 11.9542 29.9978 11.2844C29.6254 9.70818 28.7318 8.30387 27.4618 7.2989C26.1917 6.29393 24.6196 5.74716 23 5.74716C21.3804 5.74716 19.8083 6.29393 18.5382 7.2989C17.2682 8.30387 16.3746 9.70818 16.0022 11.2844C16.933 11.9545 17.6685 12.8602 18.1334 13.9087C18.5982 14.9571 18.7756 16.1103 18.6473 17.25V17.2471ZM15.3726 17.2471C15.4792 16.7738 15.478 16.2827 15.3691 15.8099C15.2601 15.3372 15.0462 14.895 14.7432 14.5162C14.4402 14.1373 14.0558 13.8315 13.6186 13.6213C13.1814 13.4111 12.7024 13.302 12.2173 13.302C11.7322 13.302 11.2533 13.4111 10.816 13.6213C10.3788 13.8315 9.99445 14.1373 9.69144 14.5162C9.38843 14.895 9.17453 15.3372 9.06557 15.8099C8.95661 16.2827 8.95539 16.7738 9.062 17.2471H15.3726ZM30.6274 17.2471H36.9351C37.0417 16.7738 37.0405 16.2827 36.9316 15.8099C36.8226 15.3372 36.6087 14.895 36.3057 14.5162C36.0027 14.1373 35.6183 13.8315 35.1811 13.6213C34.7439 13.4111 34.2649 13.302 33.7798 13.302C33.2947 13.302 32.8158 13.4111 32.3785 13.6213C31.9413 13.8315 31.5569 14.1373 31.2539 14.5162C30.9509 14.895 30.737 15.3372 30.6281 15.8099C30.5191 16.2827 30.5179 16.7738 30.6245 17.2471H30.6274ZM23 33.0625C26.5641 33.0625 30.0011 31.7384 32.644 29.3473C35.287 26.9561 36.9474 23.6684 37.3031 20.1221H8.69688C9.05257 23.6684 10.713 26.9561 13.356 29.3473C15.9989 31.7384 19.4359 33.0625 23 33.0625ZM17.25 40.2529H28.75C29.1312 40.2529 29.4969 40.4043 29.7665 40.6739C30.0361 40.9435 30.1875 41.3091 30.1875 41.6904C30.1875 42.0716 30.0361 42.4372 29.7665 42.7068C29.4969 42.9764 29.1312 43.1279 28.75 43.1279H17.25C16.8688 43.1279 16.5031 42.9764 16.2335 42.7068C15.964 42.4372 15.8125 42.0716 15.8125 41.6904C15.8125 41.3091 15.964 40.9435 16.2335 40.6739C16.5031 40.4043 16.8688 40.2529 17.25 40.2529Z" fill="#717D11"/>
</svg>
