<svg width="46" height="46" viewBox="0 0 46 46" fill="none" xmlns="http://www.w3.org/2000/svg">
<g clip-path="url(#clip0_212_8)">
<path d="M23.046 43.7033C5.05999 43.7033 -0.621015 38.111 2.65484 27.9976H43.4371C46.713 38.111 41.032 43.7033 23.046 43.7033Z" stroke="#717D11" stroke-width="3.28571" stroke-linejoin="round"/>
<path d="M13.8986 14.0596C17.5293 18.7417 18.814 23.46 19.3298 27.9089" stroke="#717D11" stroke-width="3.28571" stroke-linecap="round" stroke-linejoin="round"/>
<path d="M4.4948 27.9779C2.52337 23.7886 3.14765 18.9554 5.88466 16.5666C5.45556 15.9687 5.08164 15.3331 4.76751 14.6675C2.47408 9.79807 3.79823 4.35036 7.72466 2.49721C11.6609 0.64407 16.7078 3.08864 19.0012 7.95807C19.321 8.64369 19.5729 9.33369 19.7569 10.0281C23.0164 9.4925 26.6307 11.4278 28.7434 14.9336L29.3578 16.1264" stroke="#717D11" stroke-width="3.28571" stroke-linecap="round" stroke-linejoin="round"/>
<path d="M25.1718 27.564H42.4284C42.6978 26.5914 42.8336 25.5093 42.8358 24.3177C42.8358 18.5348 39.583 15.282 33.8001 15.282C28.0173 15.282 24.7644 18.5348 24.7644 24.3177C24.7644 25.5093 24.9002 26.5914 25.1718 27.564Z" stroke="#717D11" stroke-width="3.28571" stroke-linecap="round" stroke-linejoin="round"/>
</g>
<defs>
<clipPath id="clip0_212_8">
<rect width="46" height="46" fill="white"/>
</clipPath>
</defs>
</svg>
