<svg width="46" height="46" viewBox="0 0 46 46" fill="none" xmlns="http://www.w3.org/2000/svg">
<path d="M24.5846 11.5L24.9268 14.375H33.5904L32.8717 20.125H22.6921L22.0235 14.375H22.0315L21.6893 11.5L21.6852 11.4651L20.8729 4.48015L20.6863 2.875H9.34375V5.75H18.1262L18.7949 11.5H10.5904L14.2291 40.6066C14.3169 41.3015 14.655 41.9405 15.1801 42.4041C15.7051 42.8677 16.3811 43.124 17.0815 43.125H30.356C31.0564 43.124 31.7325 42.8678 32.2577 42.4042C32.7828 41.9406 33.1209 41.3015 33.2088 40.6066L36.8471 11.5H24.5846ZM13.8471 14.375H19.1292L19.7978 20.125H14.5658L13.8471 14.375ZM30.3572 40.25H17.0815L14.9252 23H20.1321L21.3857 33.7812H24.28L23.0263 23H32.5127L30.3572 40.25Z" fill="#717D11"/>
</svg>
