<svg width="41" height="41" viewBox="0 0 41 41" fill="none" xmlns="http://www.w3.org/2000/svg">
<path fill-rule="evenodd" clip-rule="evenodd" d="M6.05762 40.2615C4.4505 40.2615 2.92387 39.6233 1.77387 38.4876C0.623875 37.352 0 35.811 0 34.2039V6.05762C0 4.4505 0.63825 2.92388 1.77387 1.77388C2.9095 0.623875 4.4505 0 6.05762 0H34.2039C35.811 0 37.3376 0.63825 38.4876 1.77388C39.6376 2.9095 40.2615 4.4505 40.2615 6.05762V34.2039C40.2615 35.811 39.6233 37.3376 38.4876 38.4876C37.352 39.6376 35.811 40.2615 34.2039 40.2615H6.05762ZM30.6389 23.2702H26.3839V37.329H34.2039C34.6146 37.3301 35.0215 37.2501 35.4012 37.0934C35.7808 36.9368 36.1258 36.7066 36.4162 36.4162C36.7066 36.1258 36.9368 35.7808 37.0934 35.4012C37.2501 35.0215 37.3301 34.6146 37.329 34.2039V6.05762C37.3294 5.64712 37.2488 5.24057 37.0919 4.86124C36.935 4.48192 36.7048 4.13725 36.4145 3.84698C36.1242 3.55671 35.7796 3.32653 35.4003 3.16962C35.0209 3.0127 34.6144 2.93212 34.2039 2.9325H6.05762C5.22949 2.93478 4.43592 3.26476 3.85034 3.85034C3.26476 4.43592 2.93478 5.22949 2.9325 6.05762V34.2039C2.93478 35.032 3.26476 35.8256 3.85034 36.4112C4.43592 36.9967 5.22949 37.3267 6.05762 37.329H21.6976V23.2702H17.0114V18.584H21.6976V16.0655C21.6976 11.293 24.0206 9.19425 27.9939 9.19425C29.854 9.19425 30.8545 9.32937 31.3289 9.3955L31.3576 9.39837V13.8834H28.6551C27.2924 13.8834 26.6484 14.467 26.4529 15.6429C26.4059 15.9492 26.3838 16.2588 26.3867 16.5686V18.5725H31.303L30.6331 23.2588L30.6389 23.2702Z" fill="black"/>
</svg>
