<svg width="64" height="64" viewBox="0 0 64 64" fill="none" xmlns="http://www.w3.org/2000/svg">
<g clip-path="url(#clip0_186_33)">
<path d="M7.28256 48.8801H56.7172M23.3039 39.5841L18.8186 6.15206C18.7867 5.88753 18.8077 5.6193 18.8804 5.36296C18.9531 5.10663 19.076 4.86729 19.242 4.65887C19.408 4.45045 19.6137 4.2771 19.8473 4.14889C20.0809 4.02069 20.3376 3.94018 20.6026 3.91206L26.7599 3.13873C27.2955 3.06306 27.8394 3.20184 28.2733 3.5249C28.7072 3.84796 28.9961 4.3292 29.0772 4.86406L33.9412 41.0667M8.71189 24.8827L6.55723 15.5627C6.44411 15.0844 6.51236 14.581 6.74878 14.1501C6.9852 13.7191 7.37301 13.3911 7.83723 13.2294L19.1999 9.06673M39.0479 39.7334L43.5572 6.15206C43.5906 5.8873 43.5706 5.61853 43.4985 5.3616C43.4264 5.10467 43.3036 4.86477 43.1374 4.65602C42.9711 4.44728 42.7648 4.27392 42.5305 4.14615C42.2962 4.01838 42.0387 3.93879 41.7732 3.91206L35.6186 3.13873C35.0825 3.0623 34.5379 3.20072 34.1034 3.52385C33.6689 3.84699 33.3796 4.32867 33.2986 4.86406L31.1999 20.5787M53.6666 24.8801L55.8186 15.5627C55.9317 15.0844 55.8634 14.581 55.627 14.1501C55.3906 13.7191 55.0028 13.3911 54.5386 13.2294L43.1679 9.06673" stroke="#717D11" stroke-width="4" stroke-linecap="round" stroke-linejoin="round"/>
<path d="M61.52 25.6694C61.3125 25.4193 61.0525 25.218 60.7584 25.0797C60.4644 24.9415 60.1435 24.8696 59.8186 24.8694H51.7333C51.2473 24.8623 50.7747 25.029 50.4007 25.3394C50.0267 25.6499 49.7758 26.0837 49.6933 26.5627C48.9192 30.8049 46.639 34.6249 43.2725 37.3197C39.9059 40.0145 35.6794 41.4029 31.3706 41.2294C27.0623 41.4022 22.8364 40.0135 19.4704 37.3188C16.1044 34.624 13.8247 30.8044 13.0506 26.5627C12.9655 26.0844 12.7135 25.6518 12.3395 25.3418C11.9655 25.0318 11.4937 24.8644 11.0079 24.8694H4.18128C3.85636 24.8696 3.53549 24.9415 3.24145 25.0797C2.94742 25.218 2.68743 25.4193 2.47995 25.6694C2.27621 25.9127 2.13165 26.1999 2.05762 26.5086C1.98359 26.8172 1.98211 27.1387 2.05328 27.448L9.80795 59.2294C9.92347 59.7057 10.1976 60.1287 10.5853 60.4286C10.973 60.7286 11.4512 60.8878 11.9413 60.88H52.064C52.5541 60.8878 53.0323 60.7286 53.4199 60.4286C53.8076 60.1287 54.0818 59.7057 54.1973 59.2294L61.9546 27.448C62.0227 27.138 62.0189 26.8166 61.9435 26.5083C61.8682 26.2 61.7233 25.913 61.52 25.6694Z" stroke="#717D11" stroke-width="4" stroke-linecap="round" stroke-linejoin="round"/>
</g>
<defs>
<clipPath id="clip0_186_33">
<rect width="64" height="64" fill="white"/>
</clipPath>
</defs>
</svg>
