<svg width="46" height="46" viewBox="0 0 46 46" fill="none" xmlns="http://www.w3.org/2000/svg">
<path fill-rule="evenodd" clip-rule="evenodd" d="M11.0554 22.379C11.0554 23.1648 10.4037 23.8165 9.61787 23.8165C8.83204 23.8165 8.18037 23.1648 8.18037 22.379C8.18037 13.6198 14.927 6.39399 23.5137 5.66565V4.17065C23.5137 3.38482 24.1654 2.73315 24.9512 2.73315C25.737 2.73315 26.3887 3.38482 26.3887 4.17065V5.66565C34.9754 6.39399 41.722 13.6198 41.722 22.379C41.722 23.1648 41.0704 23.8165 40.2845 23.8165C39.4987 23.8165 38.847 23.1648 38.847 22.379C38.847 14.7123 32.6179 8.48315 24.9512 8.48315C17.2845 8.48315 11.0554 14.7123 11.0554 22.379ZM7.69929 25.7332H42.1226C42.9085 25.7332 43.5601 26.3848 43.5601 27.1707C43.5601 27.9565 42.9085 28.6082 42.1226 28.6082H38.9218L33.9576 34.0707C31.7726 36.4473 30.6226 37.6932 29.051 38.4407C27.4601 39.2073 25.7351 39.3223 22.5918 39.514L16.3626 39.9165C15.0785 39.9932 14.4843 40.0507 14.0818 40.2232C13.6985 40.3957 13.3151 40.779 12.3568 41.7373L10.5743 43.5198C10.2868 43.8073 9.92262 43.9415 9.55846 43.9415C9.19429 43.9415 8.83012 43.8073 8.54262 43.5198C8.27528 43.2493 8.12536 42.8843 8.12536 42.504C8.12536 42.1237 8.27528 41.7587 8.54262 41.4882L10.3251 39.7057C11.3793 38.6515 12.0118 38.019 12.9126 37.6165C13.7943 37.214 14.6951 37.1373 16.2093 37.0607L22.4385 36.6582L22.7681 36.6352C25.4246 36.4588 26.7931 36.3668 27.8435 35.8532C28.9015 35.3606 29.8291 34.3486 31.6576 32.3533L31.7343 32.269L35.0693 28.6082H32.2135L29.2043 31.6173C29.0957 31.7195 29.005 31.8064 28.9321 31.878C28.8362 31.9753 28.7351 32.0675 28.6293 32.154C27.8243 32.8632 26.7893 33.304 25.6585 33.3807C25.5243 33.3998 25.3135 33.3998 24.911 33.3998H18.2026C17.4168 33.3998 16.7651 32.7482 16.7651 31.9623C16.7651 31.1765 17.4168 30.5248 18.2026 30.5248H23.4351C23.2435 29.5857 22.5151 28.8573 21.5568 28.6657C21.3268 28.6082 20.886 28.6082 20.1385 28.6082H18.6435C16.7843 28.6082 15.8451 28.6082 15.0785 28.7998C14.4651 28.934 13.9285 29.164 13.4685 29.4515C12.7593 29.8732 12.1076 30.5248 10.7851 31.8473L4.88179 37.7698C4.32596 38.3257 3.40596 38.3257 2.85012 37.7698C2.58279 37.4993 2.43286 37.1343 2.43286 36.754C2.43286 36.3737 2.58279 36.0087 2.85012 35.7382L8.75346 29.8348C9.23262 29.3557 9.63512 28.9532 9.99929 28.6082H7.69929C6.91346 28.6082 6.26179 27.9565 6.26179 27.1707C6.26179 26.3848 6.91346 25.7332 7.69929 25.7332ZM27.0672 29.7122L27.1918 29.5857L28.1693 28.6082H25.7926C26.0035 29.0298 26.176 29.4898 26.2718 29.969C26.3101 30.0648 26.3293 30.1798 26.3293 30.2757C26.5018 30.1798 26.6551 30.084 26.8085 29.9498C26.9018 29.8787 26.9884 29.7991 27.0672 29.7122Z" fill="#717D11"/>
</svg>
