<svg width="39" height="39" viewBox="0 0 39 39" fill="none" xmlns="http://www.w3.org/2000/svg">
<path d="M29.4017 6.63167C28.9468 6.63167 28.5021 6.76656 28.1239 7.01929C27.7456 7.27201 27.4508 7.63122 27.2767 8.05149C27.1027 8.47176 27.0571 8.93422 27.1459 9.38037C27.2346 9.82653 27.4537 10.2364 27.7753 10.558C28.097 10.8797 28.5068 11.0987 28.953 11.1875C29.3991 11.2762 29.8616 11.2307 30.2818 11.0566C30.7021 10.8825 31.0613 10.5877 31.314 10.2095C31.5668 9.83125 31.7017 9.38656 31.7017 8.93167C31.7017 8.32167 31.4593 7.73665 31.028 7.30532C30.5967 6.87399 30.0117 6.63167 29.4017 6.63167ZM38.2183 11.27C38.1807 9.67977 37.8829 8.10645 37.3367 6.6125C36.8515 5.33322 36.0927 4.17538 35.1133 3.22C34.1642 2.23757 33.0042 1.48384 31.7208 1.01583C30.2309 0.452641 28.6558 0.147986 27.0633 0.115C25.0317 -1.07102e-07 24.38 0 19.1667 0C13.9533 0 13.3017 -1.07102e-07 11.27 0.115C9.67754 0.147986 8.10241 0.452641 6.6125 1.01583C5.33213 1.48973 4.17328 2.24266 3.22 3.22C2.23757 4.16909 1.48384 5.32918 1.01583 6.6125C0.452641 8.10241 0.147986 9.67754 0.115 11.27C-1.07102e-07 13.3017 0 13.9533 0 19.1667C0 24.38 -1.07102e-07 25.0317 0.115 27.0633C0.147986 28.6558 0.452641 30.2309 1.01583 31.7208C1.48384 33.0042 2.23757 34.1642 3.22 35.1133C4.17328 36.0907 5.33213 36.8436 6.6125 37.3175C8.10241 37.8807 9.67754 38.1853 11.27 38.2183C13.3017 38.3333 13.9533 38.3333 19.1667 38.3333C24.38 38.3333 25.0317 38.3333 27.0633 38.2183C28.6558 38.1853 30.2309 37.8807 31.7208 37.3175C33.0042 36.8495 34.1642 36.0958 35.1133 35.1133C36.0951 34.1599 36.8543 33.0015 37.3367 31.7208C37.8829 30.2269 38.1807 28.6536 38.2183 27.0633C38.2183 25.0317 38.3333 24.38 38.3333 19.1667C38.3333 13.9533 38.3333 13.3017 38.2183 11.27ZM34.7683 26.8333C34.7547 28.05 34.5344 29.2555 34.1167 30.3983C33.8106 31.2325 33.3191 31.9861 32.6792 32.6025C32.0571 33.2355 31.3051 33.7259 30.475 34.04C29.3322 34.4577 28.1267 34.6781 26.91 34.6917C24.9933 34.7875 24.2842 34.8067 19.2433 34.8067C14.2025 34.8067 13.4933 34.8067 11.5767 34.6917C10.3133 34.7165 9.0552 34.5219 7.85833 34.1167C7.06519 33.7857 6.34782 33.2966 5.75 32.6792C5.11384 32.0634 4.62845 31.3091 4.33167 30.475C3.86217 29.3162 3.60257 28.0831 3.565 26.8333C3.565 24.9167 3.45 24.2075 3.45 19.1667C3.45 14.1258 3.45 13.4167 3.565 11.5C3.57199 10.256 3.7991 9.02313 4.23583 7.85833C4.57326 7.04933 5.09117 6.32818 5.75 5.75C6.3306 5.08912 7.05071 4.5654 7.85833 4.21667C9.02635 3.794 10.2579 3.57362 11.5 3.565C13.4167 3.565 14.1258 3.45 19.1667 3.45C24.2075 3.45 24.9167 3.45 26.8333 3.565C28.05 3.57858 29.2555 3.79895 30.3983 4.21667C31.2693 4.53992 32.0511 5.06546 32.6792 5.75C33.3054 6.34038 33.7958 7.05974 34.1167 7.85833C34.543 9.02535 34.7635 10.2575 34.7683 11.5C34.8642 13.4167 34.8833 14.1258 34.8833 19.1667C34.8833 24.2075 34.8642 24.9167 34.7683 26.8333ZM19.1667 9.33417C17.2228 9.33796 15.3237 9.91784 13.7093 11.0006C12.0948 12.0833 10.8376 13.6202 10.0963 15.4172C9.35504 17.2142 9.16305 19.1906 9.54461 21.0966C9.92616 23.0027 10.8641 24.7529 12.24 26.126C13.6158 27.4992 15.3679 28.4338 17.2746 28.8116C19.1814 29.1895 21.1574 28.9936 22.953 28.2489C24.7485 27.5041 26.283 26.2438 27.3626 24.6273C28.4421 23.0108 29.0183 21.1105 29.0183 19.1667C29.0209 17.8731 28.7676 16.5918 28.2732 15.3965C27.7788 14.2012 27.0529 13.1154 26.1373 12.2016C25.2218 11.2878 24.1346 10.564 22.9383 10.0719C21.742 9.57985 20.4602 9.32911 19.1667 9.33417ZM19.1667 25.5492C17.9043 25.5492 16.6703 25.1748 15.6207 24.4735C14.5711 23.7722 13.7531 22.7754 13.27 21.6091C12.7869 20.4429 12.6605 19.1596 12.9068 17.9215C13.1531 16.6834 13.7609 15.5462 14.6536 14.6536C15.5462 13.7609 16.6834 13.1531 17.9215 12.9068C19.1596 12.6605 20.4429 12.7869 21.6091 13.27C22.7754 13.7531 23.7722 14.5711 24.4735 15.6207C25.1748 16.6703 25.5492 17.9043 25.5492 19.1667C25.5492 20.0048 25.3841 20.8348 25.0633 21.6091C24.7426 22.3835 24.2724 23.0871 23.6798 23.6798C23.0871 24.2724 22.3835 24.7426 21.6091 25.0633C20.8348 25.3841 20.0048 25.5492 19.1667 25.5492Z" fill="black"/>
</svg>
