<svg width="46" height="46" viewBox="0 0 46 46" fill="none" xmlns="http://www.w3.org/2000/svg">
<path d="M27.7917 22.5208C27.1208 22.5208 26.5535 22.2889 26.0897 21.8251C25.6258 21.3613 25.3946 20.7946 25.3958 20.125C25.3971 19.4555 25.629 18.8881 26.0916 18.423C26.5541 17.9579 27.1208 17.7266 27.7917 17.7292C28.4625 17.7317 29.0298 17.9636 29.4937 18.4249C29.9575 18.8862 30.1888 19.4529 30.1875 20.125C30.1862 20.7971 29.9543 21.3645 29.4918 21.827C29.0292 22.2896 28.4625 22.5208 27.7917 22.5208ZM18.2083 22.5208C17.5375 22.5208 16.9702 22.2889 16.5063 21.8251C16.0425 21.3613 15.8112 20.7946 15.8125 20.125C15.8138 19.4555 16.0457 18.8881 16.5083 18.423C16.9708 17.9579 17.5375 17.7266 18.2083 17.7292C18.8792 17.7317 19.4465 17.9636 19.9103 18.4249C20.3742 18.8862 20.6054 19.4529 20.6042 20.125C20.6029 20.7971 20.371 21.3645 19.9084 21.827C19.4459 22.2896 18.8792 22.5208 18.2083 22.5208ZM23 32.5833C21.0833 32.5833 19.35 32.0563 17.8001 31.0021C16.2501 29.9479 15.1084 28.5583 14.375 26.8333H31.625C30.8903 28.5583 29.7486 29.9479 28.1999 31.0021C26.6513 32.0563 24.9179 32.5833 23 32.5833ZM23 40.25C20.6042 40.25 18.3604 39.7951 16.2687 38.8853C14.1769 37.9756 12.3561 36.7457 10.8062 35.1958C9.25623 33.6458 8.02636 31.825 7.11659 29.7333C6.20681 27.6415 5.75128 25.3971 5.75 23C5.74872 20.6029 6.20425 18.3591 7.11659 16.2687C8.02892 14.1782 9.25814 12.3574 10.8043 10.8062C12.3504 9.25495 14.1712 8.02509 16.2668 7.11659C18.3623 6.20809 20.6067 5.75257 23 5.75001C25.3933 5.74746 27.6377 6.20298 29.7333 7.11659C31.8288 8.03021 33.6496 9.25943 35.1958 10.8043C36.7419 12.3491 37.9717 14.1699 38.8853 16.2668C39.7989 18.3636 40.2538 20.608 40.25 23C40.2462 25.392 39.7913 27.6364 38.8853 29.7333C37.9794 31.8301 36.7495 33.6509 35.1958 35.1958C33.642 36.7406 31.8211 37.9705 29.7333 38.8853C27.6454 39.8002 25.4009 40.2551 23 40.25ZM23 36.4167C26.7056 36.4167 29.8681 35.107 32.4875 32.4875C35.1069 29.8681 36.4167 26.7056 36.4167 23C36.4167 19.2945 35.1069 16.132 32.4875 13.5125C29.8681 10.8931 26.7056 9.58334 23 9.58334H22.425C22.2333 9.58334 22.0417 9.61529 21.85 9.67918C21.6583 9.87084 21.5306 10.0785 21.4667 10.3021C21.4028 10.5257 21.3708 10.7653 21.3708 11.0208C21.3708 11.6917 21.6021 12.259 22.0647 12.7228C22.5272 13.1867 23.0946 13.418 23.7667 13.4167C24.0542 13.4167 24.318 13.3688 24.5583 13.2729C24.7985 13.1771 25.0457 13.1292 25.3 13.1292C25.6833 13.1292 26.0028 13.2729 26.2583 13.5604C26.5139 13.8479 26.6417 14.1833 26.6417 14.5667C26.6417 15.3014 26.2979 15.7729 25.6105 15.9812C24.9231 16.1895 24.3084 16.293 23.7667 16.2917C22.3292 16.2917 21.0916 15.7729 20.0541 14.7353C19.0165 13.6978 18.4971 12.4596 18.4958 11.0208V10.7333C18.4958 10.6375 18.5118 10.5097 18.5438 10.35C15.8924 11.3083 13.7361 12.9215 12.075 15.1896C10.4139 17.4576 9.58334 20.0611 9.58334 23C9.58334 26.7056 10.8931 29.8681 13.5125 32.4875C16.1319 35.107 19.2944 36.4167 23 36.4167Z" fill="#717D11"/>
</svg>
