<svg width="40" height="40" viewBox="0 0 40 40" fill="none" xmlns="http://www.w3.org/2000/svg">
<path d="M20 5.83325C17.2564 5.83314 14.5717 6.62974 12.2721 8.12629C9.97256 9.62284 8.15703 11.7549 7.04608 14.2636C5.93513 16.7723 5.57656 19.5496 6.01392 22.2582C6.45128 24.9668 7.66576 27.4901 9.50983 29.5216C11.3539 31.5531 13.7482 33.0055 16.4019 33.7022C19.0557 34.3989 21.8546 34.3101 24.4588 33.4464C27.063 32.5828 29.3604 30.9815 31.0719 28.8371C32.7834 26.6927 33.8353 24.0975 34.1 21.3666C34.1151 21.2035 34.0817 21.0395 34.0042 20.8952C33.9266 20.7509 33.8082 20.6327 33.6637 20.5554C33.5193 20.478 33.3553 20.4449 33.1922 20.4603C33.0291 20.4756 32.8742 20.5387 32.7467 20.6416C31.8854 21.3386 30.8937 21.8568 29.8298 22.1659C28.7658 22.475 27.6508 22.5689 26.5501 22.442C25.4495 22.3151 24.3851 21.97 23.4194 21.4268C22.4537 20.8836 21.606 20.1533 20.9259 19.2786C20.2458 18.4039 19.747 17.4024 19.4586 16.3326C19.1702 15.2628 19.098 14.1463 19.2463 13.0483C19.3946 11.9503 19.7603 10.8928 20.3222 9.93786C20.884 8.98289 21.6306 8.14955 22.5184 7.48659C22.6501 7.38816 22.7498 7.25297 22.8048 7.09802C22.8599 6.94308 22.8679 6.77531 22.8278 6.61583C22.7877 6.45636 22.7013 6.31231 22.5795 6.20182C22.4577 6.09133 22.306 6.01934 22.1434 5.99492C21.434 5.88746 20.7175 5.83342 20 5.83325Z" fill="white"/>
</svg>
