<svg width="33" height="34" viewBox="0 0 33 34" fill="none" xmlns="http://www.w3.org/2000/svg">
<path d="M16.6636 0C13.6465 0.000554441 10.686 0.82012 8.09815 2.37127C5.51027 3.92242 3.39199 6.14698 1.96927 8.80764C0.54656 11.4683 -0.127221 14.4653 0.0198035 17.4788C0.166828 20.4924 1.12914 23.4095 2.8041 25.9191C4.47905 28.4286 6.80382 30.4364 9.53041 31.7283C12.257 33.0201 15.2831 33.5476 18.286 33.2545C21.2889 32.9613 24.1559 31.8585 26.5811 30.0637C29.0064 28.2689 30.899 25.8494 32.0569 23.0633C32.6253 21.6967 31.2636 20.3233 29.8936 20.88C27.5456 21.8311 24.9384 21.9293 22.5255 21.1574C20.1126 20.3855 18.0465 18.7924 16.6865 16.655C15.3265 14.5177 14.7585 11.9713 15.0813 9.45859C15.4042 6.94588 16.5974 4.62578 18.4536 2.90167L18.5819 2.76833C19.5003 1.71833 18.7703 0.0133334 17.3186 0.0133334H16.8753L16.7619 0.00333329L16.6636 0Z" fill="black"/>
</svg>
