<svg width="48" height="48" viewBox="0 0 48 48" fill="none" xmlns="http://www.w3.org/2000/svg">
<g filter="url(#filter0_d_35_19)">
<path d="M24.707 0C20.9577 0.000665329 17.279 0.984144 14.0631 2.84553C10.8473 4.70691 8.21504 7.37637 6.44711 10.5692C4.67918 13.762 3.84191 17.3583 4.02461 20.9746C4.20731 24.5909 5.40313 28.0914 7.4845 31.1029C9.56588 34.1143 12.4547 36.5237 15.8429 38.0739C19.2311 39.6241 22.9915 40.2571 26.723 39.9054C30.4545 39.5536 34.0172 38.2302 37.0309 36.0765C40.0447 33.9227 42.3965 31.0193 43.8354 27.676C44.5417 26.036 42.8496 24.388 41.1472 25.056C38.2294 26.1973 34.9896 26.3151 31.9913 25.3889C28.9929 24.4626 26.4255 22.5508 24.7354 19.986C23.0454 17.4212 22.3396 14.3656 22.7408 11.3503C23.1419 8.33505 24.6247 5.55093 26.9313 3.482L27.0908 3.322C28.2319 2.062 27.3248 0.016 25.5209 0.016H24.97L24.8292 0.00399995L24.707 0Z" fill="white"/>
</g>
<defs>
<filter id="filter0_d_35_19" x="0" y="0" width="48" height="48" filterUnits="userSpaceOnUse" color-interpolation-filters="sRGB">
<feFlood flood-opacity="0" result="BackgroundImageFix"/>
<feColorMatrix in="SourceAlpha" type="matrix" values="0 0 0 0 0 0 0 0 0 0 0 0 0 0 0 0 0 0 127 0" result="hardAlpha"/>
<feOffset dy="4"/>
<feGaussianBlur stdDeviation="2"/>
<feComposite in2="hardAlpha" operator="out"/>
<feColorMatrix type="matrix" values="0 0 0 0 0 0 0 0 0 0 0 0 0 0 0 0 0 0 0.25 0"/>
<feBlend mode="normal" in2="BackgroundImageFix" result="effect1_dropShadow_35_19"/>
<feBlend mode="normal" in="SourceGraphic" in2="effect1_dropShadow_35_19" result="shape"/>
</filter>
</defs>
</svg>
