<svg width="64" height="64" viewBox="0 0 64 64" fill="none" xmlns="http://www.w3.org/2000/svg">
<path d="M10.2537 10.2675V17.4081M31.1131 10.2675V17.4081M20.6857 4.95093V12.0915" stroke="#717D11" stroke-width="4.57143" stroke-linecap="round" stroke-linejoin="round"/>
<path d="M52.6125 21.0378C52.6125 22.1957 53.0725 23.3061 53.8912 24.1249C54.71 24.9436 55.8204 25.4035 56.9783 25.4035C58.1361 25.4035 59.2466 24.9436 60.0653 24.1249C60.884 23.3061 61.344 22.1957 61.344 21.0378C61.344 19.88 60.884 18.7695 60.0653 17.9508C59.2466 17.1321 58.1361 16.6721 56.9783 16.6721C55.8204 16.6721 54.71 17.1321 53.8912 17.9508C53.0725 18.7695 52.6125 19.88 52.6125 21.0378Z" stroke="#717D11" stroke-width="4.57143" stroke-linecap="round"/>
<path d="M49.5588 39.6663L50.528 40.0915C57.2937 43.2915 59.1634 47.4332 59.1634 53.1201V54.4823C59.1634 55.6948 58.6818 56.8575 57.8244 57.7148C56.9671 58.5721 55.8044 59.0538 54.592 59.0538H7.4971C6.00224 59.0538 4.59881 58.3178 4.02281 56.9372C2.75653 53.8789 1.28453 47.7349 5.11081 40.0915C10.6422 29.0469 24.2514 26.6195 32.9691 31.1909L33.3805 31.4012" stroke="#717D11" stroke-width="4.57143" stroke-linecap="round" stroke-linejoin="round"/>
<path d="M46.4365 45.7418C50.6788 41.0881 50.8982 34.3818 46.9302 30.7703C42.9622 27.1589 36.3108 28.0046 32.073 32.6584C28.2193 36.8869 27.6845 42.8024 30.5873 46.5555C30.8829 46.9425 31.2136 47.3006 31.5793 47.6298" stroke="#717D11" stroke-width="4.57143" stroke-linecap="round"/>
<path d="M53.9703 24.2104L47.1771 30.999" stroke="#717D11" stroke-width="4.57143" stroke-linecap="round" stroke-linejoin="round"/>
</svg>
