<svg width="46" height="46" viewBox="0 0 46 46" fill="none" xmlns="http://www.w3.org/2000/svg">
<path d="M5.74996 15.8383V15.8124C5.74992 13.2567 6.50683 10.7583 7.92518 8.63227C9.34354 6.50626 11.3598 4.84796 13.7196 3.86659C16.0793 2.88522 18.6769 2.62475 21.1846 3.11804C23.6922 3.61132 25.9976 4.83626 27.8098 6.63832C29.2357 5.93456 30.8284 5.63866 32.4119 5.78332C33.9954 5.92798 35.5081 6.50757 36.7828 7.45806C38.0576 8.40854 39.0448 9.69292 39.6353 11.1693C40.2259 12.6456 40.3968 14.2565 40.1292 15.8239C40.5226 15.8605 40.9043 15.9777 41.2504 16.1682C41.5964 16.3588 41.8995 16.6187 42.1407 16.9316C42.3819 17.2446 42.556 17.6039 42.6521 17.9871C42.7482 18.3703 42.7644 18.7692 42.6995 19.1589C41.4 26.9761 38.1857 31.9239 33.0625 34.0054V35.9374C33.0625 37.0812 32.6081 38.1781 31.7994 38.9868C30.9906 39.7956 29.8937 40.2499 28.75 40.2499H17.25C16.1062 40.2499 15.0093 39.7956 14.2006 38.9868C13.3918 38.1781 12.9375 37.0812 12.9375 35.9374V34.0054C7.81421 31.9239 4.59996 26.9761 3.30046 19.1589C3.23775 18.7796 3.25177 18.3915 3.3417 18.0176C3.43163 17.6438 3.59565 17.2917 3.82404 16.9824C4.05243 16.6731 4.34056 16.4127 4.67136 16.2166C5.00217 16.0206 5.36894 15.893 5.74996 15.8412V15.8383ZM8.62496 15.8124H11.5C11.5 13.9062 12.2572 12.078 13.6051 10.7301C14.953 9.3822 16.7812 8.62495 18.6875 8.62495C20.5937 8.62495 22.4219 9.3822 23.7698 10.7301C25.1177 12.078 25.875 13.9062 25.875 15.8124H28.75C28.75 13.1437 27.6898 10.5843 25.8027 8.69718C23.9156 6.8101 21.3562 5.74995 18.6875 5.74995C16.0187 5.74995 13.4593 6.8101 11.5722 8.69718C9.68512 10.5843 8.62496 13.1437 8.62496 15.8124ZM14.375 15.8124H23C23 14.6687 22.5456 13.5718 21.7369 12.763C20.9281 11.9543 19.8312 11.4999 18.6875 11.4999C17.5437 11.4999 16.4468 11.9543 15.6381 12.763C14.8293 13.5718 14.375 14.6687 14.375 15.8124ZM34.1147 15.8124H37.1938C37.4109 14.9628 37.4311 14.0748 37.253 13.2162C37.0749 12.3575 36.7031 11.5509 36.166 10.8577C35.6289 10.1645 34.9407 9.60301 34.1537 9.21609C33.3668 8.82916 32.5019 8.62698 31.625 8.62495C30.935 8.62495 30.2795 8.7457 29.67 8.96707C30.1788 9.78357 30.5986 10.6633 30.9206 11.5862C31.4682 11.4504 32.0436 11.4783 32.5754 11.6666C33.1073 11.8549 33.5721 12.1952 33.9123 12.6453C34.2524 13.0954 34.453 13.6354 34.489 14.1985C34.5249 14.7615 34.3948 15.3227 34.1147 15.8124ZM30.1875 34.4999H15.8125V35.9374C15.8125 36.3187 15.9639 36.6843 16.2335 36.9539C16.5031 37.2235 16.8687 37.3749 17.25 37.3749H28.75C29.1312 37.3749 29.4968 37.2235 29.7664 36.9539C30.036 36.6843 30.1875 36.3187 30.1875 35.9374V34.4999ZM14.8005 31.6249H31.1995C35.7592 30.1587 38.6457 26.0129 39.8647 18.6874H6.13521C7.35421 26.0129 10.2407 30.1587 14.8005 31.6249Z" fill="#717D11"/>
</svg>
