<svg width="64" height="64" viewBox="0 0 64 64" fill="none" xmlns="http://www.w3.org/2000/svg">
<g opacity="0.9">
<path fill-rule="evenodd" clip-rule="evenodd" d="M58.666 28.0004C58.6657 24.386 57.801 20.8241 56.1442 17.6118C54.4873 14.3995 52.0862 11.63 49.1413 9.53439C46.1964 7.43878 42.7931 6.07779 39.2152 5.56499C35.6374 5.05218 31.9888 5.40243 28.5738 6.58651C25.1588 7.77058 22.0765 9.75416 19.5841 12.3717C17.0916 14.9893 15.2613 18.165 14.2458 21.6338C13.2302 25.1026 13.059 28.764 13.7463 32.3125C14.4335 35.861 15.9595 39.1936 18.1967 42.0324L8.45802 51.7711C7.97227 52.274 7.70348 52.9476 7.70956 53.6468C7.71563 54.346 7.99608 55.0149 8.4905 55.5093C8.98492 56.0037 9.65376 56.2841 10.353 56.2902C11.0521 56.2963 11.7257 56.0275 12.2287 55.5418L21.9674 45.8031C25.3097 48.4378 29.3263 50.0782 33.5574 50.5367C37.7886 50.9952 42.0633 50.2532 45.8924 48.3957C49.7216 46.5382 52.9504 43.6401 55.2094 40.0332C57.4684 36.4263 58.6663 32.2563 58.666 28.0004ZM35.9994 10.6671C40.5964 10.6671 45.0052 12.4933 48.2559 15.7439C51.5065 18.9945 53.3327 23.4033 53.3327 28.0004C53.3327 32.5975 51.5065 37.0063 48.2559 40.2569C45.0052 43.5076 40.5964 45.3338 35.9994 45.3338C31.4023 45.3338 26.9935 43.5076 23.7428 40.2569C20.4922 37.0063 18.666 32.5975 18.666 28.0004C18.666 23.4033 20.4922 18.9945 23.7428 15.7439C26.9935 12.4933 31.4023 10.6671 35.9994 10.6671Z" fill="#717D11"/>
</g>
</svg>
