<svg width="64" height="64" viewBox="0 0 64 64" fill="none" xmlns="http://www.w3.org/2000/svg">
<path fill-rule="evenodd" clip-rule="evenodd" d="M26.6666 58.6666C21.0086 58.6666 15.5824 56.419 11.5816 52.4182C7.58086 48.4174 5.33325 42.9912 5.33325 37.3333C5.33325 31.6753 7.58086 26.2491 11.5816 22.2483C15.5824 18.2475 21.0086 15.9999 26.6666 15.9999C32.3245 15.9999 37.7508 18.2475 41.7515 22.2483C45.7523 26.2491 47.9999 31.6753 47.9999 37.3333C47.9999 42.9912 45.7523 48.4174 41.7515 52.4182C37.7508 56.419 32.3245 58.6666 26.6666 58.6666ZM26.6666 53.3333C28.7677 53.3333 30.8483 52.9194 32.7895 52.1153C34.7307 51.3113 36.4946 50.1327 37.9803 48.647C39.466 47.1612 40.6446 45.3974 41.4487 43.4562C42.2527 41.515 42.6666 39.4344 42.6666 37.3333C42.6666 35.2321 42.2527 33.1515 41.4487 31.2103C40.6446 29.2691 39.466 27.5053 37.9803 26.0195C36.4946 24.5338 34.7307 23.3553 32.7895 22.5512C30.8483 21.7471 28.7677 21.3333 26.6666 21.3333C22.4231 21.3333 18.3535 23.019 15.3529 26.0195C12.3523 29.0201 10.6666 33.0898 10.6666 37.3333C10.6666 41.5767 12.3523 45.6464 15.3529 48.647C18.3535 51.6475 22.4231 53.3333 26.6666 53.3333ZM34.6666 39.9999C34.6666 42.1217 33.8237 44.1565 32.3234 45.6568C30.8232 47.1571 28.7883 47.9999 26.6666 47.9999C24.5449 47.9999 22.51 47.1571 21.0097 45.6568C19.5094 44.1565 18.6666 42.1217 18.6666 39.9999H34.6666ZM21.3333 34.6666C22.0405 34.6666 22.7188 34.3856 23.2189 33.8855C23.719 33.3854 23.9999 32.7072 23.9999 31.9999C23.9999 31.2927 23.719 30.6144 23.2189 30.1143C22.7188 29.6142 22.0405 29.3333 21.3333 29.3333C20.626 29.3333 19.9477 29.6142 19.4476 30.1143C18.9475 30.6144 18.6666 31.2927 18.6666 31.9999C18.6666 32.7072 18.9475 33.3854 19.4476 33.8855C19.9477 34.3856 20.626 34.6666 21.3333 34.6666ZM31.9999 34.6666C31.2927 34.6666 30.6144 34.3856 30.1143 33.8855C29.6142 33.3854 29.3333 32.7072 29.3333 31.9999C29.3333 31.2927 29.6142 30.6144 30.1143 30.1143C30.6144 29.6142 31.2927 29.3333 31.9999 29.3333C32.7072 29.3333 33.3854 29.6142 33.8855 30.1143C34.3856 30.6144 34.6666 31.2927 34.6666 31.9999C34.6666 32.7072 34.3856 33.3854 33.8855 33.8855C33.3854 34.3856 32.7072 34.6666 31.9999 34.6666ZM49.6666 21.3333C47.4613 20.8533 40.6666 17.0933 40.6666 10.3333C40.6666 9.28384 40.9968 8.26103 41.6104 7.4097C42.224 6.55837 43.0899 5.92169 44.0854 5.58984C45.081 5.25798 46.1557 5.24778 47.1574 5.56068C48.1591 5.87359 49.0369 6.49372 49.6666 7.33325C50.2962 6.49372 51.1741 5.87359 52.1757 5.56068C53.1774 5.24778 54.2522 5.25798 55.2477 5.58984C56.2433 5.92169 57.1092 6.55837 57.7228 7.4097C58.3364 8.26103 58.6666 9.28384 58.6666 10.3333C58.6666 17.0933 51.8719 20.8533 49.6666 21.3333Z" fill="white"/>
</svg>
