<svg width="40" height="40" viewBox="0 0 40 40" fill="none" xmlns="http://www.w3.org/2000/svg">
<path d="M20.0002 31.6667C26.4435 31.6667 31.6668 26.4433 31.6668 20C31.6668 13.5567 26.4435 8.33333 20.0002 8.33333C13.5568 8.33333 8.3335 13.5567 8.3335 20C8.3335 26.4433 13.5568 31.6667 20.0002 31.6667Z" fill="white"/>
<path d="M20 0C20.442 0 20.8659 0.175595 21.1785 0.488155C21.4911 0.800716 21.6667 1.22464 21.6667 1.66667V3.33333H18.3333V1.66667C18.3333 1.22464 18.5089 0.800716 18.8215 0.488155C19.134 0.175595 19.558 0 20 0ZM20 40C19.558 40 19.134 39.8244 18.8215 39.5118C18.5089 39.1993 18.3333 38.7754 18.3333 38.3333V36.6667H21.6667V38.3333C21.6667 38.7754 21.4911 39.1993 21.1785 39.5118C20.8659 39.8244 20.442 40 20 40ZM1.66667 18.3333C1.22464 18.3333 0.800716 18.5089 0.488155 18.8215C0.175595 19.134 0 19.558 0 20C0 20.442 0.175595 20.8659 0.488155 21.1785C0.800716 21.4911 1.22464 21.6667 1.66667 21.6667H3.33333V18.3333H1.66667ZM40 20C40 20.442 39.8244 20.8659 39.5118 21.1785C39.1993 21.4911 38.7754 21.6667 38.3333 21.6667H36.6667V18.3333H38.3333C38.7754 18.3333 39.1993 18.5089 39.5118 18.8215C39.8244 19.134 40 19.558 40 20ZM12.2767 3.29C12.168 3.09892 12.0227 2.93122 11.849 2.79655C11.6752 2.66189 11.4766 2.56291 11.2645 2.50532C11.0524 2.44773 10.8309 2.43266 10.613 2.461C10.395 2.48933 10.1848 2.56049 9.99445 2.67039C9.8041 2.7803 9.63737 2.92677 9.50386 3.10137C9.37034 3.27597 9.27268 3.47526 9.2165 3.68776C9.16032 3.90026 9.14673 4.12177 9.1765 4.33954C9.20628 4.55732 9.27884 4.76705 9.39 4.95667L10.2233 6.4L13.11 4.73333L12.2767 3.29ZM30 37.32C29.6172 37.541 29.1623 37.6009 28.7353 37.4865C28.3084 37.3721 27.9444 37.0928 27.7233 36.71L26.89 35.2667L29.7767 33.6L30.61 35.0433C30.831 35.4261 30.8909 35.881 30.7765 36.308C30.6621 36.735 30.3828 37.099 30 37.32ZM3.29 27.7233C2.91032 27.9459 2.6341 28.3096 2.5216 28.7351C2.40911 29.1606 2.46948 29.6133 2.68954 29.9945C2.9096 30.3756 3.27149 30.6543 3.69623 30.7696C4.12096 30.8849 4.57407 30.8275 4.95667 30.61L6.4 29.7767L4.73333 26.89L3.29 27.7233ZM37.3233 10C37.4326 10.1897 37.5035 10.3992 37.5318 10.6163C37.5601 10.8334 37.5454 11.054 37.4884 11.2654C37.4314 11.4768 37.3334 11.675 37.1998 11.8485C37.0663 12.022 36.8998 12.1675 36.71 12.2767L35.2667 13.11L33.6 10.2233L35.0433 9.39C35.4261 9.169 35.881 9.10911 36.308 9.2235C36.735 9.3379 37.1023 9.61721 37.3233 10ZM4.95333 9.39C4.57074 9.17247 4.11763 9.11511 3.69289 9.23042C3.26816 9.34573 2.90627 9.62436 2.68621 10.0055C2.46615 10.3867 2.40578 10.8394 2.51827 11.2649C2.63076 11.6904 2.90699 12.0541 3.28667 12.2767L4.73 13.11L6.39667 10.2233L4.95333 9.39ZM37.3233 30C37.2139 30.19 37.068 30.3565 36.8941 30.49C36.7202 30.6235 36.5217 30.7214 36.3099 30.7781C36.0981 30.8348 35.8772 30.8491 35.6599 30.8202C35.4425 30.7914 35.233 30.7199 35.0433 30.61L33.6 29.7767L35.2667 26.89L36.71 27.7233C37.0928 27.9444 37.3721 28.3084 37.4865 28.7353C37.6009 29.1623 37.5443 29.6172 37.3233 30ZM9.38667 35.0433C9.16914 35.4259 9.11177 35.879 9.22709 36.3038C9.3424 36.7285 9.62103 37.0904 10.0022 37.3105C10.3833 37.5305 10.836 37.5909 11.2615 37.4784C11.687 37.3659 12.0507 37.0897 12.2733 36.71L13.1067 35.2667L10.22 33.6L9.38667 35.0433ZM30 2.67667C30.19 2.78611 30.3565 2.93195 30.49 3.10586C30.6235 3.27976 30.7214 3.47829 30.7781 3.69009C30.8348 3.90189 30.8491 4.12279 30.8202 4.34013C30.7914 4.55747 30.7199 4.76698 30.61 4.95667L29.7767 6.4L26.89 4.73333L27.7233 3.29C27.9444 2.90721 28.3084 2.6279 28.7353 2.5135C29.1623 2.39911 29.6172 2.459 30 2.68" fill="white"/>
</svg>
