<svg width="46" height="46" viewBox="0 0 46 46" fill="none" xmlns="http://www.w3.org/2000/svg">
<g clip-path="url(#clip0_145_16)">
<path d="M42.5945 0.0047663C42.0266 0.0516702 41.4691 0.200012 40.9434 0.444103H40.9364C40.432 0.666727 38.0342 1.7897 34.3887 3.49188L21.3252 9.61699C11.9515 14.0104 2.73697 18.3368 2.73697 18.3368L2.84669 18.2895C2.84669 18.2895 2.21139 18.5219 1.54778 19.0283C1.13687 19.3174 0.783869 19.6976 0.510771 20.1453C0.185158 20.6773 -0.0767484 21.4909 0.0205817 22.3322C0.179849 23.7546 1.00804 24.6077 1.60264 25.0785C2.20431 25.5553 2.77768 25.7779 2.77768 25.7779H2.79183L11.433 29.0188C11.8205 30.4037 14.0662 38.6231 14.6059 40.5164C14.9245 41.6472 15.2342 42.3545 15.6217 42.8943C15.8069 43.1701 16.0305 43.4006 16.2924 43.5858C16.4284 43.6769 16.5749 43.7471 16.7277 43.7947L16.6392 43.771C16.6658 43.7789 16.687 43.8026 16.7065 43.8104C16.7773 43.8321 16.8251 43.84 16.9153 43.8557C18.2832 44.3168 19.3822 43.3711 19.3822 43.3711L19.4441 43.3159L24.546 38.1444L33.0969 45.4476L33.2915 45.5402C35.0736 46.411 36.8786 45.9263 37.8324 45.0713C38.7933 44.2104 39.1667 43.1091 39.1667 43.1091L39.2287 42.9318L45.8365 5.24529C46.0241 4.31539 46.0719 3.4446 45.8648 2.59942C45.6524 1.74344 45.1592 1.00736 44.4827 0.536699C43.9155 0.152525 43.2576 -0.0328151 42.5945 0.0047663ZM42.4158 4.04352C42.4087 4.16763 42.4299 4.15384 42.3804 4.39223V4.4139L35.8345 41.7083C35.8062 41.7615 35.7584 41.8777 35.6275 41.994C35.4894 42.1161 35.3797 42.193 34.8046 41.9388L24.346 33.0122L18.0284 39.423L19.3556 29.9861L36.4433 12.255C37.1476 11.526 36.9122 11.3724 36.9122 11.3724C36.9618 10.4779 35.8487 11.1103 35.8487 11.1103L14.3016 25.971L14.2945 25.9316L3.96687 22.0603V22.0524L3.94033 22.0465L3.99342 22.0229L4.05005 21.9913L4.1049 21.9697C4.1049 21.9697 13.3265 17.6433 22.7003 13.2499C27.3933 11.0493 32.1218 8.83288 35.7584 7.12282C37.9151 6.11215 40.0741 5.10738 42.2353 4.10853C42.3804 4.04549 42.3114 4.04352 42.4158 4.04352Z" fill="black"/>
</g>
<defs>
<clipPath id="clip0_145_16">
<rect width="46" height="46" fill="white"/>
</clipPath>
</defs>
</svg>
