<svg width="46" height="46" viewBox="0 0 46 46" fill="none" xmlns="http://www.w3.org/2000/svg">
<path d="M27.7917 22.0415C24.4375 25.6487 21.0833 34.4998 21.0833 34.4998C21.0833 34.4998 16.2917 22.0415 11.5 19.1665" stroke="#717D11" stroke-width="2.875" stroke-linecap="round" stroke-linejoin="round"/>
<path d="M34.5308 14.8159L35.0981 20.7192C35.4661 24.5487 32.5949 27.9584 28.7654 28.3284C25.0088 28.6887 21.6048 25.9421 21.2425 22.1854C21.1563 21.2919 21.247 20.3901 21.5094 19.5316C21.7717 18.6731 22.2007 17.8747 22.7716 17.182C23.3426 16.4892 24.0445 15.9158 24.8371 15.4944C25.6297 15.0729 26.4976 14.8118 27.3912 14.7258L33.6855 14.1201C33.8895 14.1009 34.0929 14.1633 34.2509 14.2937C34.409 14.4241 34.509 14.6119 34.5288 14.8159" stroke="#717D11" stroke-width="2.875" stroke-linecap="round" stroke-linejoin="round"/>
<path d="M23 42.1666C33.5858 42.1666 42.1667 33.5857 42.1667 22.9999C42.1667 12.4142 33.5858 3.83325 23 3.83325C12.4143 3.83325 3.83337 12.4142 3.83337 22.9999C3.83337 33.5857 12.4143 42.1666 23 42.1666Z" stroke="#717D11" stroke-width="2.875" stroke-linecap="round" stroke-linejoin="round"/>
</svg>
