<svg width="48" height="48" viewBox="0 0 48 48" fill="none" xmlns="http://www.w3.org/2000/svg">
<path d="M10.8188 8.51458C10.9758 8.43689 11.1465 8.39089 11.3213 8.37919C11.496 8.3675 11.6714 8.39036 11.8373 8.44645C12.0032 8.50254 12.1564 8.59076 12.2882 8.70609C12.4201 8.82142 12.5279 8.96158 12.6055 9.11858L13.6602 11.2572L15.8108 8.95058C16.0519 8.69198 16.3857 8.53969 16.739 8.52719C17.0923 8.51469 17.4361 8.643 17.6948 8.88392C18.2322 9.38792 18.2615 10.2319 17.7601 10.7706L14.9228 13.8146L15.9935 15.9826L17.7682 14.3652C17.8977 14.2474 18.0492 14.1562 18.214 14.0969C18.3788 14.0375 18.5537 14.0113 18.7287 14.0196C18.9036 14.0279 19.0752 14.0706 19.2337 14.1452C19.3921 14.2198 19.5343 14.325 19.6522 14.4546C19.7704 14.5842 19.862 14.7359 19.9215 14.9009C19.9811 15.066 20.0075 15.2412 19.9992 15.4165C19.9909 15.5917 19.948 15.7637 19.8732 15.9223C19.7983 16.081 19.6928 16.2234 19.5628 16.3413L17.2228 18.4719L18.6308 21.3239C18.7878 21.6409 18.8125 22.0073 18.6993 22.3425C18.5862 22.6777 18.3445 22.9542 18.0275 23.1112C17.7105 23.2683 17.3441 23.2929 17.0089 23.1798C16.6737 23.0666 16.3972 22.8249 16.2402 22.5079L14.7801 19.5493L12.1615 20.0799C11.8144 20.1501 11.4537 20.0796 11.1586 19.8838C10.8635 19.688 10.6583 19.383 10.5882 19.0359C10.518 18.6888 10.5885 18.3281 10.7843 18.033C10.9801 17.738 11.2851 17.5328 11.6322 17.4626L13.5575 17.0733L12.4975 14.9266L8.44415 15.5372C8.09406 15.5898 7.73746 15.5011 7.45278 15.2906C7.1681 15.0802 6.97866 14.7653 6.92615 14.4153C6.87364 14.0652 6.96235 13.7086 7.17276 13.4239C7.38318 13.1392 7.69806 12.9498 8.04815 12.8972L11.2562 12.4132L10.2148 10.3026C10.1369 10.1456 10.0907 9.9747 10.0789 9.79981C10.0671 9.62491 10.09 9.44941 10.1461 9.28334C10.2022 9.11726 10.2904 8.96388 10.4059 8.83197C10.5213 8.70006 10.6616 8.59221 10.8188 8.51458ZM40.9522 20.3319C41.1264 20.3138 41.3025 20.3302 41.4704 20.3802C41.6382 20.4302 41.7946 20.5128 41.9306 20.6232C42.0665 20.7337 42.1794 20.8698 42.2627 21.0239C42.346 21.178 42.3982 21.347 42.4162 21.5213C42.6828 24.0639 41.5628 26.4679 39.4468 27.8999C39.1532 28.0819 38.8006 28.143 38.4629 28.0706C38.1252 27.9982 37.8287 27.7979 37.6355 27.5116C37.4423 27.2253 37.3676 26.8753 37.4268 26.535C37.4861 26.1948 37.6749 25.8907 37.9535 25.6866C38.5843 25.2683 39.0872 24.6838 39.4067 23.9977C39.7262 23.3116 39.8499 22.5506 39.7642 21.7986C39.7457 21.6242 39.7618 21.448 39.8115 21.2799C39.8612 21.1118 39.9436 20.9551 40.054 20.8189C40.1643 20.6826 40.3005 20.5695 40.4546 20.4859C40.6087 20.4024 40.7778 20.3501 40.9522 20.3319Z" fill="#717D11"/>
<path fill-rule="evenodd" clip-rule="evenodd" d="M5.47876 47.9986C9.43076 47.7986 11.8988 46.6999 13.4321 45.0759C13.9681 45.8413 14.8988 46.2893 15.9081 46.1319C21.2068 45.3053 33.0148 43.1293 46.2854 38.5399C46.7841 38.3821 47.2195 38.0696 47.5286 37.6477C47.8376 37.2257 48.0043 36.7163 48.0043 36.1933C48.0043 35.6702 47.8376 35.1608 47.5286 34.7389C47.2195 34.3169 46.7841 34.0044 46.2854 33.8466C44.7805 33.3275 43.2974 32.8381 41.8361 32.3786C44.4828 30.9826 46.5134 28.6399 47.3081 25.6666C49.1014 18.9666 44.3948 13.1373 38.2868 14.9919C37.8561 11.9173 38.8534 9.08526 41.4708 7.57192L40.1374 5.25992C36.9001 7.13059 35.5401 10.3319 35.5281 13.6106C33.2334 11.8546 30.4521 11.7879 28.0881 13.0239C28.0781 12.628 28.0217 12.2347 27.9201 11.8519C27.5134 10.3306 26.4268 9.24392 24.9334 8.61859C24.6268 7.21059 23.9201 5.50126 22.5854 4.22659C21.0388 2.75192 18.8174 2.01859 15.9228 2.73059C15.2111 1.75761 14.2554 0.989556 13.1521 0.503923C11.3721 -0.262744 9.1361 -0.246744 6.61343 1.20526C3.97743 2.43859 2.70676 4.25326 2.3561 6.15592C2.11876 7.44926 2.32543 8.67592 2.66543 9.64392C0.428095 11.6053 -0.245238 13.8453 0.0760949 15.9559C0.354762 17.7813 1.34943 19.3413 2.32543 20.3999C1.98143 21.9826 2.24943 23.4946 3.26143 24.7013C3.52276 25.0115 3.82054 25.2884 4.15476 25.5319C4.14878 25.5859 4.14611 25.6403 4.14676 25.6946C4.17743 28.1719 4.31876 30.1306 4.82676 31.6533C3.18943 32.2786 1.64543 33.5493 0.237428 35.4666C0.0822443 35.6773 -0.00146484 35.9322 -0.00146484 36.1939C-0.00146484 36.4556 0.0822443 36.7105 0.237428 36.9213C1.63343 38.8226 3.1641 40.0893 4.78676 40.7186C4.35476 42.1959 4.18676 44.1399 4.14809 46.6893C4.14395 46.8642 4.17569 47.038 4.24138 47.2002C4.30706 47.3623 4.40528 47.5093 4.52998 47.632C4.65468 47.7547 4.80321 47.8505 4.96639 47.9136C5.12958 47.9766 5.30396 48.0056 5.47876 47.9986ZM15.8934 36.1933C15.8934 37.5666 15.8401 38.9399 15.6214 40.2399V43.4746C16.9148 43.2706 18.5908 42.9879 20.5734 42.6093V37.6733H23.2401V42.0799C27.7795 41.1419 32.2818 40.0327 36.7374 38.7546V36.1946H39.4041V37.9679C41.1948 37.4213 43.0308 36.8319 44.8974 36.1946C42.3395 35.3196 39.761 34.5061 37.1641 33.7546L37.0174 33.7679L32.6268 32.5039C31.9352 32.3235 31.2552 32.1501 30.5868 31.9839V37.6733H27.9201V31.3386C23.8514 30.3805 19.7491 29.5711 15.6214 28.9119V32.1466C15.8388 33.4466 15.8934 34.8199 15.8934 36.1933ZM12.9548 40.0066V32.3799C12.7681 31.3666 12.4681 30.5093 12.0094 29.8026C11.3094 28.7239 9.96143 27.6026 6.85209 27.1893C6.92009 28.8199 7.07343 29.9626 7.35476 30.8066L8.16543 33.2359L5.77609 34.1479C4.94543 34.4653 4.02543 35.0973 3.06809 36.1933C4.01476 37.2786 4.92809 37.9093 5.75076 38.2293L8.03476 39.1173L7.34543 41.4706C7.09209 42.3359 6.93476 43.5213 6.85876 45.1959C9.9641 44.7826 11.3094 43.6626 12.0094 42.5853C12.4681 41.8786 12.7681 41.0213 12.9561 40.0079M14.2188 26.5813C12.6921 25.3973 10.8708 24.4746 8.64409 24.2813C6.83876 24.1239 5.80009 23.5746 5.30409 22.9839C4.86409 22.4599 4.65743 21.6679 5.08143 20.4413L5.3721 19.6013L4.71076 19.0093C3.86409 18.2519 2.92676 16.9519 2.71343 15.5546C2.52409 14.3066 2.86943 12.7333 5.0801 11.1319L6.03343 10.4426L5.46809 9.40926C5.10809 8.75192 4.78809 7.68926 4.98009 6.64126C5.15609 5.68659 5.79476 4.52392 7.78809 3.60392L7.84676 3.57726L7.90143 3.54526C9.80009 2.43859 11.1681 2.55592 12.1014 2.95859C13.1121 3.39192 13.8174 4.25192 14.1334 4.89192L14.6548 5.94526L15.7641 5.56259C18.3441 4.66926 19.8321 5.28792 20.7468 6.16126C21.7694 7.13726 22.2961 8.65192 22.4321 9.77859L22.5374 10.6586L23.3908 10.9026C24.6388 11.2586 25.1694 11.8826 25.3468 12.5439C25.5468 13.2893 25.4001 14.4546 24.4934 16.0213C23.8112 17.2082 23.3835 18.5241 23.2374 19.8853C22.8148 21.9826 23.0641 24.0959 23.8548 26.0213C23.9721 26.4946 24.0948 26.9519 24.2108 27.3866L24.2574 27.5573C24.2805 27.6408 24.3005 27.7235 24.3174 27.8053C20.7814 27.0639 17.8908 26.5653 15.9108 26.2559C15.3256 26.163 14.7278 26.2781 14.2188 26.5813ZM37.4054 31.0479C34.7424 30.2848 32.0626 29.5815 29.3681 28.9386C28.0702 27.9558 27.046 26.6567 26.3934 25.1653C25.9934 23.5039 25.7174 21.8839 25.8668 20.3319C25.8934 20.2013 25.9245 20.0706 25.9601 19.9399C26.6974 17.1853 28.4841 15.5493 30.1868 15.0373C31.7708 14.5613 33.6068 14.9399 35.0934 16.9626L36.3561 18.6826L38.3108 17.8266C40.6081 16.8186 42.3854 17.4093 43.5201 18.6146C44.7401 19.9119 45.4694 22.2213 44.7334 24.9773C43.8841 28.1479 40.9988 30.5373 37.4054 31.0479Z" fill="#717D11"/>
</svg>
